<svg width="222" height="140" viewBox="0 0 222 140" fill="none" xmlns="http://www.w3.org/2000/svg">
<path d="M53.7454 68C53.4254 68 53.1374 67.904 52.8814 67.712C52.6894 67.456 52.5934 67.168 52.5934 66.848V1.952C52.5934 1.632 52.6894 1.376 52.8814 1.184C53.1374 0.927996 53.4254 0.799995 53.7454 0.799995H64.9774C65.2974 0.799995 65.5534 0.927996 65.7454 1.184C66.0014 1.376 66.1294 1.632 66.1294 1.952V66.848C66.1294 67.168 66.0014 67.456 65.7454 67.712C65.5534 67.904 65.2974 68 64.9774 68H53.7454ZM109.47 49.472C109.47 55.424 107.678 60 104.094 63.2C100.51 66.4 95.8704 68 90.1744 68H72.0304C71.7104 68 71.4224 67.904 71.1664 67.712C70.9744 67.456 70.8784 67.168 70.8784 66.848V1.952C70.8784 1.632 70.9744 1.376 71.1664 1.184C71.4224 0.927996 71.7104 0.799995 72.0304 0.799995H88.0624C94.4624 0.799995 99.4544 2.336 103.038 5.408C106.686 8.48 108.51 13.056 108.51 19.136C108.51 25.472 106.334 30.08 101.982 32.96C101.726 33.152 101.694 33.344 101.886 33.536C106.942 37.12 109.47 42.432 109.47 49.472ZM84.8944 12.416C84.5744 12.416 84.4144 12.576 84.4144 12.896V27.968C84.4144 28.288 84.5744 28.448 84.8944 28.448H88.3504C90.5264 28.448 92.2224 27.776 93.4384 26.432C94.6544 25.024 95.2624 23.072 95.2624 20.576C95.2624 17.952 94.6544 15.936 93.4384 14.528C92.2864 13.12 90.5904 12.416 88.3504 12.416H84.8944ZM89.1184 56.288C91.2304 56.288 92.8944 55.52 94.1104 53.984C95.3264 52.448 95.9344 50.272 95.9344 47.456C95.9344 44.64 95.3264 42.4 94.1104 40.736C92.8944 39.072 91.2624 38.24 89.2144 38.24H84.8944C84.5744 38.24 84.4144 38.4 84.4144 38.72V55.808C84.4144 56.128 84.5744 56.288 84.8944 56.288H89.1184ZM138.481 68C137.713 68 137.297 67.648 137.233 66.944L135.697 57.728C135.697 57.408 135.505 57.248 135.121 57.248H122.929C122.545 57.248 122.353 57.408 122.353 57.728L120.817 66.944C120.753 67.648 120.337 68 119.569 68H108.337C107.505 68 107.185 67.584 107.377 66.752L121.489 1.856C121.617 1.152 122.033 0.799995 122.737 0.799995H135.697C136.401 0.799995 136.817 1.152 136.945 1.856L150.961 66.752L151.057 67.136C151.057 67.712 150.705 68 150.001 68H138.481ZM124.273 46.304C124.273 46.624 124.401 46.784 124.657 46.784H133.297C133.617 46.784 133.745 46.624 133.681 46.304L129.169 20.096C129.105 19.904 129.009 19.808 128.881 19.808C128.753 19.808 128.657 19.904 128.593 20.096L124.273 46.304ZM153.882 68C153.562 68 153.274 67.904 153.018 67.712C152.826 67.456 152.73 67.168 152.73 66.848V1.952C152.73 1.632 152.826 1.376 153.018 1.184C153.274 0.927996 153.562 0.799995 153.882 0.799995H165.114C165.434 0.799995 165.69 0.927996 165.882 1.184C166.138 1.376 166.266 1.632 166.266 1.952V66.848C166.266 67.168 166.138 67.456 165.882 67.712C165.69 67.904 165.434 68 165.114 68H153.882ZM35.6006 83.264C35.6006 83.584 35.4726 83.872 35.2166 84.128C35.0246 84.32 34.7686 84.416 34.4486 84.416H14.4806C14.1606 84.416 14.0006 84.576 14.0006 84.896V100.064C14.0006 100.384 14.1606 100.544 14.4806 100.544H25.9046C26.2246 100.544 26.4806 100.672 26.6726 100.928C26.9286 101.12 27.0566 101.376 27.0566 101.696V111.008C27.0566 111.328 26.9286 111.616 26.6726 111.872C26.4806 112.064 26.2246 112.16 25.9046 112.16H14.4806C14.1606 112.16 14.0006 112.32 14.0006 112.64V138.848C14.0006 139.168 13.8726 139.456 13.6166 139.712C13.4246 139.904 13.1686 140 12.8486 140H1.61662C1.29662 140 1.00862 139.904 0.752624 139.712C0.560624 139.456 0.464624 139.168 0.464624 138.848V73.952C0.464624 73.632 0.560624 73.376 0.752624 73.184C1.00862 72.928 1.29662 72.8 1.61662 72.8H34.4486C34.7686 72.8 35.0246 72.928 35.2166 73.184C35.4726 73.376 35.6006 73.632 35.6006 73.952V83.264ZM61.3174 140C60.5494 140 60.1334 139.648 60.0694 138.944L58.5334 129.728C58.5334 129.408 58.3414 129.248 57.9574 129.248H45.7654C45.3814 129.248 45.1894 129.408 45.1894 129.728L43.6534 138.944C43.5894 139.648 43.1734 140 42.4054 140H31.1734C30.3414 140 30.0214 139.584 30.2134 138.752L44.3254 73.856C44.4534 73.152 44.8694 72.8 45.5734 72.8H58.5334C59.2374 72.8 59.6534 73.152 59.7814 73.856L73.7974 138.752L73.8934 139.136C73.8934 139.712 73.5414 140 72.8374 140H61.3174ZM47.1094 118.304C47.1094 118.624 47.2374 118.784 47.4934 118.784H56.1334C56.4534 118.784 56.5814 118.624 56.5174 118.304L52.0054 92.096C51.9414 91.904 51.8454 91.808 51.7174 91.808C51.5894 91.808 51.4934 91.904 51.4294 92.096L47.1094 118.304ZM102.062 140C101.358 140 100.91 139.68 100.718 139.04L93.3259 112.544C93.1979 112.288 93.0379 112.16 92.8459 112.16H89.5819C89.2619 112.16 89.1019 112.32 89.1019 112.64V138.848C89.1019 139.168 88.9739 139.456 88.7179 139.712C88.5259 139.904 88.2699 140 87.9499 140H76.7179C76.3979 140 76.1099 139.904 75.8539 139.712C75.6619 139.456 75.5659 139.168 75.5659 138.848V73.952C75.5659 73.632 75.6619 73.376 75.8539 73.184C76.1099 72.928 76.3979 72.8 76.7179 72.8H96.1099C99.6299 72.8 102.766 73.664 105.518 75.392C108.27 77.056 110.382 79.424 111.854 82.496C113.39 85.568 114.158 89.088 114.158 93.056C114.158 96.832 113.422 100.16 111.95 103.04C110.542 105.92 108.558 108.16 105.998 109.76C105.87 109.824 105.774 109.92 105.71 110.048C105.646 110.112 105.646 110.208 105.71 110.336L114.542 138.656L114.638 139.04C114.638 139.68 114.286 140 113.582 140H102.062ZM89.5819 84.416C89.2619 84.416 89.1019 84.576 89.1019 84.896V101.312C89.1019 101.632 89.2619 101.792 89.5819 101.792H93.9019C95.8859 101.792 97.4859 101.024 98.7019 99.488C99.9819 97.888 100.622 95.776 100.622 93.152C100.622 90.464 99.9819 88.352 98.7019 86.816C97.4859 85.216 95.8859 84.416 93.9019 84.416H89.5819ZM118.065 140C117.745 140 117.457 139.904 117.201 139.712C117.009 139.456 116.913 139.168 116.913 138.848V73.952C116.913 73.632 117.009 73.376 117.201 73.184C117.457 72.928 117.745 72.8 118.065 72.8H129.297C129.617 72.8 129.873 72.928 130.065 73.184C130.321 73.376 130.449 73.632 130.449 73.952V138.848C130.449 139.168 130.321 139.456 130.065 139.712C129.873 139.904 129.617 140 129.297 140H118.065ZM162.654 73.952C162.654 73.632 162.75 73.376 162.942 73.184C163.198 72.928 163.486 72.8 163.806 72.8H174.942C175.262 72.8 175.518 72.928 175.71 73.184C175.966 73.376 176.094 73.632 176.094 73.952V138.848C176.094 139.168 175.966 139.456 175.71 139.712C175.518 139.904 175.262 140 174.942 140H162.27C161.63 140 161.214 139.68 161.022 139.04L149.118 101.888C149.054 101.696 148.926 101.632 148.734 101.696C148.606 101.696 148.542 101.792 148.542 101.984L148.638 138.848C148.638 139.168 148.51 139.456 148.254 139.712C148.062 139.904 147.806 140 147.486 140H136.35C136.03 140 135.742 139.904 135.486 139.712C135.294 139.456 135.198 139.168 135.198 138.848V73.952C135.198 73.632 135.294 73.376 135.486 73.184C135.742 72.928 136.03 72.8 136.35 72.8H148.926C149.566 72.8 149.982 73.12 150.174 73.76L162.174 110.912C162.238 111.104 162.334 111.2 162.462 111.2C162.654 111.136 162.75 111.008 162.75 110.816L162.654 73.952ZM208.895 140C208.127 140 207.711 139.648 207.647 138.944L206.111 129.728C206.111 129.408 205.919 129.248 205.535 129.248H193.343C192.959 129.248 192.767 129.408 192.767 129.728L191.231 138.944C191.167 139.648 190.751 140 189.983 140H178.751C177.919 140 177.599 139.584 177.791 138.752L191.903 73.856C192.031 73.152 192.447 72.8 193.151 72.8H206.111C206.815 72.8 207.231 73.152 207.359 73.856L221.375 138.752L221.471 139.136C221.471 139.712 221.119 140 220.415 140H208.895ZM194.687 118.304C194.687 118.624 194.815 118.784 195.071 118.784H203.711C204.031 118.784 204.159 118.624 204.095 118.304L199.583 92.096C199.519 91.904 199.423 91.808 199.295 91.808C199.167 91.808 199.071 91.904 199.007 92.096L194.687 118.304Z" fill="white"/>
</svg>
