<svg width="387" height="213" viewBox="0 0 387 213" fill="none" xmlns="http://www.w3.org/2000/svg">
<path d="M1.501 68C1.181 68 0.893 67.904 0.637 67.712C0.445 67.456 0.349 67.168 0.349 66.848V1.952C0.349 1.632 0.445 1.376 0.637 1.184C0.893 0.927996 1.181 0.799995 1.501 0.799995H18.877C24.701 0.799995 29.373 2.496 32.893 5.888C36.413 9.28 38.173 13.792 38.173 19.424V49.376C38.173 55.008 36.413 59.52 32.893 62.912C29.373 66.304 24.701 68 18.877 68H1.501ZM13.885 55.904C13.885 56.224 14.045 56.384 14.365 56.384L18.685 56.288C20.413 56.224 21.821 55.488 22.909 54.08C23.997 52.672 24.573 50.816 24.637 48.512V20.288C24.637 17.856 24.093 15.936 23.005 14.528C21.917 13.12 20.445 12.416 18.589 12.416H14.365C14.045 12.416 13.885 12.576 13.885 12.896V55.904ZM80.956 11.264C80.956 11.584 80.828 11.872 80.572 12.128C80.38 12.32 80.124 12.416 79.804 12.416H59.74C59.42 12.416 59.26 12.576 59.26 12.896V28.064C59.26 28.384 59.42 28.544 59.74 28.544H71.26C71.58 28.544 71.836 28.672 72.028 28.928C72.284 29.12 72.412 29.376 72.412 29.696V39.008C72.412 39.328 72.284 39.616 72.028 39.872C71.836 40.064 71.58 40.16 71.26 40.16H59.74C59.42 40.16 59.26 40.32 59.26 40.64V55.904C59.26 56.224 59.42 56.384 59.74 56.384H79.804C80.124 56.384 80.38 56.512 80.572 56.768C80.828 56.96 80.956 57.216 80.956 57.536V66.848C80.956 67.168 80.828 67.456 80.572 67.712C80.38 67.904 80.124 68 79.804 68H46.876C46.556 68 46.268 67.904 46.012 67.712C45.82 67.456 45.724 67.168 45.724 66.848V1.952C45.724 1.632 45.82 1.376 46.012 1.184C46.268 0.927996 46.556 0.799995 46.876 0.799995H79.804C80.124 0.799995 80.38 0.927996 80.572 1.184C80.828 1.376 80.956 1.632 80.956 1.952V11.264ZM105.098 68.768C101.386 68.768 98.1218 68.032 95.3058 66.56C92.4898 65.088 90.3138 63.04 88.7778 60.416C87.2418 57.728 86.4738 54.656 86.4738 51.2V48.416C86.4738 48.096 86.5698 47.84 86.7617 47.648C87.0178 47.392 87.3058 47.264 87.6258 47.264H98.6658C98.9858 47.264 99.2418 47.392 99.4338 47.648C99.6898 47.84 99.8178 48.096 99.8178 48.416V50.528C99.8178 52.512 100.33 54.112 101.354 55.328C102.378 56.544 103.658 57.152 105.194 57.152C106.73 57.152 108.01 56.576 109.034 55.424C110.058 54.272 110.57 52.768 110.57 50.912C110.57 48.992 109.93 47.36 108.65 46.016C107.37 44.608 104.874 42.56 101.162 39.872C97.9618 37.568 95.3698 35.52 93.3858 33.728C91.4018 31.936 89.7058 29.728 88.2978 27.104C86.8898 24.48 86.1858 21.44 86.1858 17.984C86.1858 12.544 87.8818 8.192 91.2738 4.928C94.6658 1.664 99.1458 0.0319996 104.714 0.0319996C110.346 0.0319996 114.858 1.728 118.25 5.12C121.706 8.512 123.434 12.96 123.434 18.464V20.768C123.434 21.088 123.306 21.376 123.05 21.632C122.858 21.824 122.602 21.92 122.282 21.92H111.242C110.922 21.92 110.634 21.824 110.378 21.632C110.186 21.376 110.09 21.088 110.09 20.768V18.176C110.09 16.192 109.578 14.624 108.554 13.472C107.594 12.256 106.314 11.648 104.714 11.648C103.178 11.648 101.93 12.224 100.97 13.376C100.01 14.464 99.5298 16 99.5298 17.984C99.5298 19.904 100.138 21.6 101.354 23.072C102.57 24.544 104.97 26.592 108.554 29.216C112.522 32.16 115.498 34.56 117.482 36.416C119.53 38.208 121.098 40.224 122.186 42.464C123.338 44.64 123.914 47.264 123.914 50.336C123.914 55.968 122.186 60.448 118.73 63.776C115.274 67.104 110.73 68.768 105.098 68.768ZM158.698 68C157.93 68 157.514 67.648 157.45 66.944L155.914 57.728C155.914 57.408 155.722 57.248 155.338 57.248H143.146C142.762 57.248 142.57 57.408 142.57 57.728L141.034 66.944C140.97 67.648 140.554 68 139.786 68H128.554C127.722 68 127.402 67.584 127.594 66.752L141.706 1.856C141.834 1.152 142.25 0.799995 142.954 0.799995H155.914C156.618 0.799995 157.034 1.152 157.162 1.856L171.178 66.752L171.274 67.136C171.274 67.712 170.922 68 170.218 68H158.698ZM144.49 46.304C144.49 46.624 144.618 46.784 144.874 46.784H153.514C153.834 46.784 153.962 46.624 153.898 46.304L149.386 20.096C149.322 19.904 149.226 19.808 149.098 19.808C148.97 19.808 148.874 19.904 148.81 20.096L144.49 46.304ZM203.283 68C202.579 68 202.131 67.68 201.939 67.04L194.547 40.544C194.419 40.288 194.259 40.16 194.067 40.16H190.803C190.483 40.16 190.323 40.32 190.323 40.64V66.848C190.323 67.168 190.195 67.456 189.939 67.712C189.747 67.904 189.491 68 189.171 68H177.939C177.619 68 177.331 67.904 177.075 67.712C176.883 67.456 176.787 67.168 176.787 66.848V1.952C176.787 1.632 176.883 1.376 177.075 1.184C177.331 0.927996 177.619 0.799995 177.939 0.799995H197.331C200.851 0.799995 203.987 1.664 206.739 3.392C209.491 5.056 211.603 7.424 213.075 10.496C214.611 13.568 215.379 17.088 215.379 21.056C215.379 24.832 214.643 28.16 213.171 31.04C211.763 33.92 209.779 36.16 207.219 37.76C207.091 37.824 206.995 37.92 206.931 38.048C206.867 38.112 206.867 38.208 206.931 38.336L215.763 66.656L215.859 67.04C215.859 67.68 215.507 68 214.803 68H203.283ZM190.803 12.416C190.483 12.416 190.323 12.576 190.323 12.896V29.312C190.323 29.632 190.483 29.792 190.803 29.792H195.123C197.107 29.792 198.707 29.024 199.923 27.488C201.203 25.888 201.843 23.776 201.843 21.152C201.843 18.464 201.203 16.352 199.923 14.816C198.707 13.216 197.107 12.416 195.123 12.416H190.803ZM240.406 68.768C234.518 68.768 229.814 67.04 226.294 63.584C222.774 60.128 221.014 55.52 221.014 49.76V19.04C221.014 13.28 222.774 8.672 226.294 5.216C229.814 1.76 234.518 0.0319996 240.406 0.0319996C246.294 0.0319996 250.998 1.76 254.518 5.216C258.102 8.672 259.894 13.28 259.894 19.04V49.76C259.894 55.52 258.102 60.128 254.518 63.584C250.998 67.04 246.294 68.768 240.406 68.768ZM240.406 57.152C242.198 57.152 243.638 56.544 244.726 55.328C245.814 54.048 246.358 52.384 246.358 50.336V18.464C246.358 16.416 245.814 14.784 244.726 13.568C243.638 12.288 242.198 11.648 240.406 11.648C238.614 11.648 237.174 12.288 236.086 13.568C235.062 14.784 234.55 16.416 234.55 18.464V50.336C234.55 52.384 235.062 54.048 236.086 55.328C237.174 56.544 238.614 57.152 240.406 57.152ZM268.501 68C268.181 68 267.893 67.904 267.637 67.712C267.445 67.456 267.349 67.168 267.349 66.848V1.952C267.349 1.632 267.445 1.376 267.637 1.184C267.893 0.927996 268.181 0.799995 268.501 0.799995H279.733C280.053 0.799995 280.309 0.927996 280.501 1.184C280.757 1.376 280.885 1.632 280.885 1.952V55.904C280.885 56.224 281.045 56.384 281.365 56.384H301.525C301.845 56.384 302.101 56.512 302.293 56.768C302.549 56.96 302.677 57.216 302.677 57.536V66.848C302.677 67.168 302.549 67.456 302.293 67.712C302.101 67.904 301.845 68 301.525 68H268.501ZM309.376 68C309.056 68 308.768 67.904 308.512 67.712C308.32 67.456 308.224 67.168 308.224 66.848V1.952C308.224 1.632 308.32 1.376 308.512 1.184C308.768 0.927996 309.056 0.799995 309.376 0.799995H320.608C320.928 0.799995 321.184 0.927996 321.376 1.184C321.632 1.376 321.76 1.632 321.76 1.952V55.904C321.76 56.224 321.92 56.384 322.24 56.384H342.4C342.72 56.384 342.976 56.512 343.168 56.768C343.424 56.96 343.552 57.216 343.552 57.536V66.848C343.552 67.168 343.424 67.456 343.168 67.712C342.976 67.904 342.72 68 342.4 68H309.376ZM367.156 68.768C361.268 68.768 356.564 67.04 353.044 63.584C349.524 60.128 347.764 55.52 347.764 49.76V19.04C347.764 13.28 349.524 8.672 353.044 5.216C356.564 1.76 361.268 0.0319996 367.156 0.0319996C373.044 0.0319996 377.748 1.76 381.268 5.216C384.852 8.672 386.644 13.28 386.644 19.04V49.76C386.644 55.52 384.852 60.128 381.268 63.584C377.748 67.04 373.044 68.768 367.156 68.768ZM367.156 57.152C368.948 57.152 370.388 56.544 371.476 55.328C372.564 54.048 373.108 52.384 373.108 50.336V18.464C373.108 16.416 372.564 14.784 371.476 13.568C370.388 12.288 368.948 11.648 367.156 11.648C365.364 11.648 363.924 12.288 362.836 13.568C361.812 14.784 361.3 16.416 361.3 18.464V50.336C361.3 52.384 361.812 54.048 362.836 55.328C363.924 56.544 365.364 57.152 367.156 57.152ZM145.032 140C144.712 140 144.424 139.904 144.168 139.712C143.976 139.456 143.88 139.168 143.88 138.848V73.952C143.88 73.632 143.976 73.376 144.168 73.184C144.424 72.928 144.712 72.8 145.032 72.8H162.408C168.232 72.8 172.904 74.496 176.424 77.888C179.944 81.28 181.704 85.792 181.704 91.424V121.376C181.704 127.008 179.944 131.52 176.424 134.912C172.904 138.304 168.232 140 162.408 140H145.032ZM157.416 127.904C157.416 128.224 157.576 128.384 157.896 128.384L162.216 128.288C163.944 128.224 165.352 127.488 166.44 126.08C167.528 124.672 168.104 122.816 168.168 120.512V92.288C168.168 89.856 167.624 87.936 166.536 86.528C165.448 85.12 163.976 84.416 162.12 84.416H157.896C157.576 84.416 157.416 84.576 157.416 84.896V127.904ZM224.487 83.264C224.487 83.584 224.359 83.872 224.103 84.128C223.911 84.32 223.655 84.416 223.335 84.416H203.271C202.951 84.416 202.791 84.576 202.791 84.896V100.064C202.791 100.384 202.951 100.544 203.271 100.544H214.791C215.111 100.544 215.367 100.672 215.559 100.928C215.815 101.12 215.943 101.376 215.943 101.696V111.008C215.943 111.328 215.815 111.616 215.559 111.872C215.367 112.064 215.111 112.16 214.791 112.16H203.271C202.951 112.16 202.791 112.32 202.791 112.64V127.904C202.791 128.224 202.951 128.384 203.271 128.384H223.335C223.655 128.384 223.911 128.512 224.103 128.768C224.359 128.96 224.487 129.216 224.487 129.536V138.848C224.487 139.168 224.359 139.456 224.103 139.712C223.911 139.904 223.655 140 223.335 140H190.407C190.087 140 189.799 139.904 189.543 139.712C189.351 139.456 189.255 139.168 189.255 138.848V73.952C189.255 73.632 189.351 73.376 189.543 73.184C189.799 72.928 190.087 72.8 190.407 72.8H223.335C223.655 72.8 223.911 72.928 224.103 73.184C224.359 73.376 224.487 73.632 224.487 73.952V83.264ZM111.208 212C110.504 212 110.088 211.648 109.96 210.944L97.0004 146.048L96.9044 145.664C96.9044 145.088 97.2564 144.8 97.9604 144.8H109.672C110.44 144.8 110.856 145.152 110.92 145.856L116.392 180.416C116.456 180.672 116.552 180.8 116.68 180.8C116.808 180.8 116.904 180.672 116.968 180.416L122.152 145.856C122.216 145.152 122.632 144.8 123.4 144.8H133.096C133.864 144.8 134.28 145.152 134.344 145.856L140.008 180.416C140.072 180.672 140.168 180.8 140.296 180.8C140.424 180.8 140.52 180.672 140.584 180.416L145.48 145.856C145.544 145.152 145.96 144.8 146.728 144.8H158.056C158.888 144.8 159.24 145.216 159.112 146.048L146.92 210.944C146.856 211.648 146.44 212 145.672 212H135.304C134.536 212 134.12 211.648 134.056 210.944L128.392 175.424C128.328 175.168 128.232 175.04 128.104 175.04C127.976 175.04 127.88 175.168 127.816 175.424L122.728 210.944C122.664 211.648 122.248 212 121.48 212H111.208ZM200.628 155.264C200.628 155.584 200.5 155.872 200.244 156.128C200.052 156.32 199.796 156.416 199.476 156.416H179.412C179.092 156.416 178.932 156.576 178.932 156.896V172.064C178.932 172.384 179.092 172.544 179.412 172.544H190.932C191.252 172.544 191.508 172.672 191.7 172.928C191.956 173.12 192.084 173.376 192.084 173.696V183.008C192.084 183.328 191.956 183.616 191.7 183.872C191.508 184.064 191.252 184.16 190.932 184.16H179.412C179.092 184.16 178.932 184.32 178.932 184.64V199.904C178.932 200.224 179.092 200.384 179.412 200.384H199.476C199.796 200.384 200.052 200.512 200.244 200.768C200.5 200.96 200.628 201.216 200.628 201.536V210.848C200.628 211.168 200.5 211.456 200.244 211.712C200.052 211.904 199.796 212 199.476 212H166.548C166.228 212 165.94 211.904 165.684 211.712C165.492 211.456 165.396 211.168 165.396 210.848V145.952C165.396 145.632 165.492 145.376 165.684 145.184C165.94 144.928 166.228 144.8 166.548 144.8H199.476C199.796 144.8 200.052 144.928 200.244 145.184C200.5 145.376 200.628 145.632 200.628 145.952V155.264ZM246.082 193.472C246.082 199.424 244.29 204 240.706 207.2C237.122 210.4 232.482 212 226.786 212H208.642C208.322 212 208.034 211.904 207.778 211.712C207.586 211.456 207.49 211.168 207.49 210.848V145.952C207.49 145.632 207.586 145.376 207.778 145.184C208.034 144.928 208.322 144.8 208.642 144.8H224.674C231.074 144.8 236.066 146.336 239.65 149.408C243.298 152.48 245.122 157.056 245.122 163.136C245.122 169.472 242.946 174.08 238.594 176.96C238.338 177.152 238.306 177.344 238.498 177.536C243.554 181.12 246.082 186.432 246.082 193.472ZM221.506 156.416C221.186 156.416 221.026 156.576 221.026 156.896V171.968C221.026 172.288 221.186 172.448 221.506 172.448H224.962C227.138 172.448 228.834 171.776 230.05 170.432C231.266 169.024 231.874 167.072 231.874 164.576C231.874 161.952 231.266 159.936 230.05 158.528C228.898 157.12 227.202 156.416 224.962 156.416H221.506ZM225.73 200.288C227.842 200.288 229.506 199.52 230.722 197.984C231.938 196.448 232.546 194.272 232.546 191.456C232.546 188.64 231.938 186.4 230.722 184.736C229.506 183.072 227.874 182.24 225.826 182.24H221.506C221.186 182.24 221.026 182.4 221.026 182.72V199.808C221.026 200.128 221.186 200.288 221.506 200.288H225.73ZM269.863 212.768C266.151 212.768 262.887 212.032 260.071 210.56C257.255 209.088 255.079 207.04 253.543 204.416C252.007 201.728 251.239 198.656 251.239 195.2V192.416C251.239 192.096 251.335 191.84 251.527 191.648C251.783 191.392 252.071 191.264 252.391 191.264H263.431C263.751 191.264 264.007 191.392 264.199 191.648C264.455 191.84 264.583 192.096 264.583 192.416V194.528C264.583 196.512 265.095 198.112 266.119 199.328C267.143 200.544 268.423 201.152 269.959 201.152C271.495 201.152 272.775 200.576 273.799 199.424C274.823 198.272 275.335 196.768 275.335 194.912C275.335 192.992 274.695 191.36 273.415 190.016C272.135 188.608 269.639 186.56 265.927 183.872C262.727 181.568 260.135 179.52 258.151 177.728C256.167 175.936 254.471 173.728 253.063 171.104C251.655 168.48 250.951 165.44 250.951 161.984C250.951 156.544 252.647 152.192 256.039 148.928C259.431 145.664 263.911 144.032 269.479 144.032C275.111 144.032 279.623 145.728 283.015 149.12C286.471 152.512 288.199 156.96 288.199 162.464V164.768C288.199 165.088 288.071 165.376 287.815 165.632C287.623 165.824 287.367 165.92 287.047 165.92H276.007C275.687 165.92 275.399 165.824 275.143 165.632C274.951 165.376 274.855 165.088 274.855 164.768V162.176C274.855 160.192 274.343 158.624 273.319 157.472C272.359 156.256 271.079 155.648 269.479 155.648C267.943 155.648 266.695 156.224 265.735 157.376C264.775 158.464 264.295 160 264.295 161.984C264.295 163.904 264.903 165.6 266.119 167.072C267.335 168.544 269.735 170.592 273.319 173.216C277.287 176.16 280.263 178.56 282.247 180.416C284.295 182.208 285.863 184.224 286.951 186.464C288.103 188.64 288.679 191.264 288.679 194.336C288.679 199.968 286.951 204.448 283.495 207.776C280.039 211.104 275.495 212.768 269.863 212.768Z" fill="white"/>
</svg>
